<!-- ไอคอน Lucide (ISC License · https://lucide.dev) — สร้างด้วย tools/build-icons.mjs อย่าแก้มือ -->
<svg xmlns="http://www.w3.org/2000/svg">
  <symbol id="i-layout-dashboard" viewBox="0 0 24 24"><g fill="none" stroke="currentColor" stroke-width="2" stroke-linecap="round" stroke-linejoin="round"><rect width="7" height="9" x="3" y="3" rx="1" /><rect width="7" height="5" x="14" y="3" rx="1" /><rect width="7" height="9" x="14" y="12" rx="1" /><rect width="7" height="5" x="3" y="16" rx="1" /></g></symbol>
  <symbol id="i-target" viewBox="0 0 24 24"><g fill="none" stroke="currentColor" stroke-width="2" stroke-linecap="round" stroke-linejoin="round"><circle cx="12" cy="12" r="10" /><circle cx="12" cy="12" r="6" /><circle cx="12" cy="12" r="2" /></g></symbol>
  <symbol id="i-package" viewBox="0 0 24 24"><g fill="none" stroke="currentColor" stroke-width="2" stroke-linecap="round" stroke-linejoin="round"><path d="M11 21.73a2 2 0 0 0 2 0l7-4A2 2 0 0 0 21 16V8a2 2 0 0 0-1-1.73l-7-4a2 2 0 0 0-2 0l-7 4A2 2 0 0 0 3 8v8a2 2 0 0 0 1 1.73z" /><path d="M12 22V12" /><polyline points="3.29 7 12 12 20.71 7" /><path d="m7.5 4.27 9 5.15" /></g></symbol>
  <symbol id="i-store" viewBox="0 0 24 24"><g fill="none" stroke="currentColor" stroke-width="2" stroke-linecap="round" stroke-linejoin="round"><path d="M15 21v-5a1 1 0 0 0-1-1h-4a1 1 0 0 0-1 1v5" /><path d="M17.774 10.31a1.12 1.12 0 0 0-1.549 0 2.5 2.5 0 0 1-3.451 0 1.12 1.12 0 0 0-1.548 0 2.5 2.5 0 0 1-3.452 0 1.12 1.12 0 0 0-1.549 0 2.5 2.5 0 0 1-3.77-3.248l2.889-4.184A2 2 0 0 1 7 2h10a2 2 0 0 1 1.653.873l2.895 4.192a2.5 2.5 0 0 1-3.774 3.244" /><path d="M4 10.95V19a2 2 0 0 0 2 2h12a2 2 0 0 0 2-2v-8.05" /></g></symbol>
  <symbol id="i-handshake" viewBox="0 0 24 24"><g fill="none" stroke="currentColor" stroke-width="2" stroke-linecap="round" stroke-linejoin="round"><path d="m11 17 2 2a1 1 0 1 0 3-3" /><path d="m14 14 2.5 2.5a1 1 0 1 0 3-3l-3.88-3.88a3 3 0 0 0-4.24 0l-.88.88a1 1 0 1 1-3-3l2.81-2.81a5.79 5.79 0 0 1 7.06-.87l.47.28a2 2 0 0 0 1.42.25L21 4" /><path d="m21 3 1 11h-2" /><path d="M3 3 2 14l6.5 6.5a1 1 0 1 0 3-3" /><path d="M3 4h8" /></g></symbol>
  <symbol id="i-receipt" viewBox="0 0 24 24"><g fill="none" stroke="currentColor" stroke-width="2" stroke-linecap="round" stroke-linejoin="round"><path d="M12 17V7" /><path d="M16 8h-6a2 2 0 0 0 0 4h4a2 2 0 0 1 0 4H8" /><path d="M4 3a1 1 0 0 1 1-1 1.3 1.3 0 0 1 .7.2l.933.6a1.3 1.3 0 0 0 1.4 0l.934-.6a1.3 1.3 0 0 1 1.4 0l.933.6a1.3 1.3 0 0 0 1.4 0l.933-.6a1.3 1.3 0 0 1 1.4 0l.934.6a1.3 1.3 0 0 0 1.4 0l.933-.6A1.3 1.3 0 0 1 19 2a1 1 0 0 1 1 1v18a1 1 0 0 1-1 1 1.3 1.3 0 0 1-.7-.2l-.933-.6a1.3 1.3 0 0 0-1.4 0l-.934.6a1.3 1.3 0 0 1-1.4 0l-.933-.6a1.3 1.3 0 0 0-1.4 0l-.933.6a1.3 1.3 0 0 1-1.4 0l-.934-.6a1.3 1.3 0 0 0-1.4 0l-.933.6a1.3 1.3 0 0 1-.7.2 1 1 0 0 1-1-1z" /></g></symbol>
  <symbol id="i-wallet" viewBox="0 0 24 24"><g fill="none" stroke="currentColor" stroke-width="2" stroke-linecap="round" stroke-linejoin="round"><path d="M19 7V4a1 1 0 0 0-1-1H5a2 2 0 0 0 0 4h15a1 1 0 0 1 1 1v4h-3a2 2 0 0 0 0 4h3a1 1 0 0 0 1-1v-2a1 1 0 0 0-1-1" /><path d="M3 5v14a2 2 0 0 0 2 2h15a1 1 0 0 0 1-1v-4" /></g></symbol>
  <symbol id="i-tag" viewBox="0 0 24 24"><g fill="none" stroke="currentColor" stroke-width="2" stroke-linecap="round" stroke-linejoin="round"><path d="M12.586 2.586A2 2 0 0 0 11.172 2H4a2 2 0 0 0-2 2v7.172a2 2 0 0 0 .586 1.414l8.704 8.704a2.426 2.426 0 0 0 3.42 0l6.58-6.58a2.426 2.426 0 0 0 0-3.42z" /><circle cx="7.5" cy="7.5" r=".5" fill="currentColor" /></g></symbol>
  <symbol id="i-landmark" viewBox="0 0 24 24"><g fill="none" stroke="currentColor" stroke-width="2" stroke-linecap="round" stroke-linejoin="round"><path d="M10 18v-7" /><path d="M11.119 2.205a2 2 0 0 1 1.762 0l7.84 3.846A.5.5 0 0 1 20.5 7h-17a.5.5 0 0 1-.22-.949z" /><path d="M14 18v-7" /><path d="M18 18v-7" /><path d="M3 22h18" /><path d="M6 18v-7" /></g></symbol>
  <symbol id="i-notebook-text" viewBox="0 0 24 24"><g fill="none" stroke="currentColor" stroke-width="2" stroke-linecap="round" stroke-linejoin="round"><path d="M2 6h4" /><path d="M2 10h4" /><path d="M2 14h4" /><path d="M2 18h4" /><rect width="16" height="20" x="4" y="2" rx="2" /><path d="M9.5 8h5" /><path d="M9.5 12H16" /><path d="M9.5 16H14" /></g></symbol>
  <symbol id="i-trending-up" viewBox="0 0 24 24"><g fill="none" stroke="currentColor" stroke-width="2" stroke-linecap="round" stroke-linejoin="round"><path d="M16 7h6v6" /><path d="m22 7-8.5 8.5-5-5L2 17" /></g></symbol>
  <symbol id="i-settings" viewBox="0 0 24 24"><g fill="none" stroke="currentColor" stroke-width="2" stroke-linecap="round" stroke-linejoin="round"><path d="M9.671 4.136a2.34 2.34 0 0 1 4.659 0 2.34 2.34 0 0 0 3.319 1.915 2.34 2.34 0 0 1 2.33 4.033 2.34 2.34 0 0 0 0 3.831 2.34 2.34 0 0 1-2.33 4.033 2.34 2.34 0 0 0-3.319 1.915 2.34 2.34 0 0 1-4.659 0 2.34 2.34 0 0 0-3.32-1.915 2.34 2.34 0 0 1-2.33-4.033 2.34 2.34 0 0 0 0-3.831A2.34 2.34 0 0 1 6.35 6.051a2.34 2.34 0 0 0 3.319-1.915" /><circle cx="12" cy="12" r="3" /></g></symbol>
  <symbol id="i-log-out" viewBox="0 0 24 24"><g fill="none" stroke="currentColor" stroke-width="2" stroke-linecap="round" stroke-linejoin="round"><path d="m16 17 5-5-5-5" /><path d="M21 12H9" /><path d="M9 21H5a2 2 0 0 1-2-2V5a2 2 0 0 1 2-2h4" /></g></symbol>
  <symbol id="i-menu" viewBox="0 0 24 24"><g fill="none" stroke="currentColor" stroke-width="2" stroke-linecap="round" stroke-linejoin="round"><path d="M4 5h16" /><path d="M4 12h16" /><path d="M4 19h16" /></g></symbol>
  <symbol id="i-shopping-cart" viewBox="0 0 24 24"><g fill="none" stroke="currentColor" stroke-width="2" stroke-linecap="round" stroke-linejoin="round"><path d="m2.05 2.05 1.099-.028a1 1 0 0 1 1.008.815l2.69 14.347A1 1 0 0 0 7.83 18H18" /><path d="M4.563 5h16.435a1 1 0 0 1 .981 1.204l-1.026 6.226A2 2 0 0 1 18.962 14H6.25" /><circle cx="18" cy="20" r="2" /><circle cx="8" cy="20" r="2" /></g></symbol>
  <symbol id="i-hourglass" viewBox="0 0 24 24"><g fill="none" stroke="currentColor" stroke-width="2" stroke-linecap="round" stroke-linejoin="round"><path d="M5 22h14" /><path d="M5 2h14" /><path d="M17 22v-4.172a2 2 0 0 0-.586-1.414L12 12l-4.414 4.414A2 2 0 0 0 7 17.828V22" /><path d="M7 2v4.172a2 2 0 0 0 .586 1.414L12 12l4.414-4.414A2 2 0 0 0 17 6.172V2" /></g></symbol>
  <symbol id="i-circle-check" viewBox="0 0 24 24"><g fill="none" stroke="currentColor" stroke-width="2" stroke-linecap="round" stroke-linejoin="round"><circle cx="12" cy="12" r="10" /><path d="m16 9-5.5 5.5L8 12" /></g></symbol>
  <symbol id="i-check" viewBox="0 0 24 24"><g fill="none" stroke="currentColor" stroke-width="2" stroke-linecap="round" stroke-linejoin="round"><path d="M20 6 9 17l-5-5" /></g></symbol>
  <symbol id="i-eye" viewBox="0 0 24 24"><g fill="none" stroke="currentColor" stroke-width="2" stroke-linecap="round" stroke-linejoin="round"><path d="M2.062 12.348a1 1 0 0 1 0-.696 10.75 10.75 0 0 1 19.876 0 1 1 0 0 1 0 .696 10.75 10.75 0 0 1-19.876 0" /><circle cx="12" cy="12" r="3" /></g></symbol>
  <symbol id="i-file-pen-line" viewBox="0 0 24 24"><g fill="none" stroke="currentColor" stroke-width="2" stroke-linecap="round" stroke-linejoin="round"><path d="M14.364 13.634a2 2 0 0 0-.506.854l-.837 2.87a.5.5 0 0 0 .62.62l2.87-.837a2 2 0 0 0 .854-.506l4.013-4.009a1 1 0 0 0-3.004-3.004z" /><path d="M14.487 7.858A1 1 0 0 1 14 7V2" /><path d="M20 19.645V20a2 2 0 0 1-2 2H6a2 2 0 0 1-2-2V4a2 2 0 0 1 2-2h8a2.4 2.4 0 0 1 1.704.706l2.516 2.516" /><path d="M8 18h1" /></g></symbol>
  <symbol id="i-star" viewBox="0 0 24 24"><g fill="none" stroke="currentColor" stroke-width="2" stroke-linecap="round" stroke-linejoin="round"><path d="M11.525 2.295a.53.53 0 0 1 .95 0l2.31 4.679a2.123 2.123 0 0 0 1.595 1.16l5.166.756a.53.53 0 0 1 .294.904l-3.736 3.638a2.123 2.123 0 0 0-.611 1.878l.882 5.14a.53.53 0 0 1-.771.56l-4.618-2.428a2.122 2.122 0 0 0-1.973 0L6.396 21.01a.53.53 0 0 1-.77-.56l.881-5.139a2.122 2.122 0 0 0-.611-1.879L2.16 9.795a.53.53 0 0 1 .294-.906l5.165-.755a2.122 2.122 0 0 0 1.597-1.16z" /></g></symbol>
  <symbol id="i-undo-2" viewBox="0 0 24 24"><g fill="none" stroke="currentColor" stroke-width="2" stroke-linecap="round" stroke-linejoin="round"><path d="M9 14 4 9l5-5" /><path d="M4 9h10.5a5.5 5.5 0 0 1 5.5 5.5a5.5 5.5 0 0 1-5.5 5.5H11" /></g></symbol>
  <symbol id="i-alarm-clock" viewBox="0 0 24 24"><g fill="none" stroke="currentColor" stroke-width="2" stroke-linecap="round" stroke-linejoin="round"><circle cx="12" cy="13" r="8" /><path d="M12 9v4l2 2" /><path d="M5 3 2 6" /><path d="m22 6-3-3" /><path d="M6.38 18.7 4 21" /><path d="M17.64 18.67 20 21" /></g></symbol>
  <symbol id="i-user" viewBox="0 0 24 24"><g fill="none" stroke="currentColor" stroke-width="2" stroke-linecap="round" stroke-linejoin="round"><path d="M19 21v-2a4 4 0 0 0-4-4H9a4 4 0 0 0-4 4v2" /><circle cx="12" cy="7" r="4" /></g></symbol>
  <symbol id="i-plus" viewBox="0 0 24 24"><g fill="none" stroke="currentColor" stroke-width="2" stroke-linecap="round" stroke-linejoin="round"><path d="M5 12h14" /><path d="M12 5v14" /></g></symbol>
  <symbol id="i-clipboard-copy" viewBox="0 0 24 24"><g fill="none" stroke="currentColor" stroke-width="2" stroke-linecap="round" stroke-linejoin="round"><rect width="8" height="4" x="8" y="2" rx="1" ry="1" /><path d="M8 4H6a2 2 0 0 0-2 2v14a2 2 0 0 0 2 2h12a2 2 0 0 0 2-2v-2" /><path d="M16 4h2a2 2 0 0 1 2 2v4" /><path d="M21 14H11" /><path d="m15 10-4 4 4 4" /></g></symbol>
  <symbol id="i-download" viewBox="0 0 24 24"><g fill="none" stroke="currentColor" stroke-width="2" stroke-linecap="round" stroke-linejoin="round"><path d="M12 15V3" /><path d="M21 15v4a2 2 0 0 1-2 2H5a2 2 0 0 1-2-2v-4" /><path d="m7 10 5 5 5-5" /></g></symbol>
  <symbol id="i-smartphone" viewBox="0 0 24 24"><g fill="none" stroke="currentColor" stroke-width="2" stroke-linecap="round" stroke-linejoin="round"><rect width="14" height="20" x="5" y="2" rx="2" ry="2" /><path d="M12 18h.01" /></g></symbol>
  <symbol id="i-search" viewBox="0 0 24 24"><g fill="none" stroke="currentColor" stroke-width="2" stroke-linecap="round" stroke-linejoin="round"><path d="m21 21-4.34-4.34" /><circle cx="11" cy="11" r="8" /></g></symbol>
  <symbol id="i-send" viewBox="0 0 24 24"><g fill="none" stroke="currentColor" stroke-width="2" stroke-linecap="round" stroke-linejoin="round"><path d="M14.536 21.686a.5.5 0 0 0 .937-.024l6.5-19a.496.496 0 0 0-.635-.635l-19 6.5a.5.5 0 0 0-.024.937l7.93 3.18a2 2 0 0 1 1.112 1.11z" /><path d="m21.854 2.147-10.94 10.939" /></g></symbol>
  <symbol id="i-credit-card" viewBox="0 0 24 24"><g fill="none" stroke="currentColor" stroke-width="2" stroke-linecap="round" stroke-linejoin="round"><rect width="20" height="14" x="2" y="5" rx="2" /><line x1="2" x2="22" y1="10" y2="10" /><path d="M6 14h2" /></g></symbol>
  <symbol id="i-triangle-alert" viewBox="0 0 24 24"><g fill="none" stroke="currentColor" stroke-width="2" stroke-linecap="round" stroke-linejoin="round"><path d="m21.73 18-8-14a2 2 0 0 0-3.48 0l-8 14A2 2 0 0 0 4 21h16a2 2 0 0 0 1.73-3" /><path d="M12 9v4" /><path d="M12 17h.01" /></g></symbol>
  <symbol id="i-key-round" viewBox="0 0 24 24"><g fill="none" stroke="currentColor" stroke-width="2" stroke-linecap="round" stroke-linejoin="round"><path d="M2.586 17.414A2 2 0 0 0 2 18.828V21a1 1 0 0 0 1 1h3a1 1 0 0 0 1-1v-1a1 1 0 0 1 1-1h1a1 1 0 0 0 1-1v-1a1 1 0 0 1 1-1h.172a2 2 0 0 0 1.414-.586l.814-.814a6.5 6.5 0 1 0-4-4z" /><circle cx="16.5" cy="7.5" r=".5" fill="currentColor" /></g></symbol>
  <symbol id="i-lock" viewBox="0 0 24 24"><g fill="none" stroke="currentColor" stroke-width="2" stroke-linecap="round" stroke-linejoin="round"><rect width="18" height="11" x="3" y="11" rx="2" ry="2" /><path d="M7 11V7a5 5 0 0 1 10 0v4" /></g></symbol>
  <symbol id="i-lock-open" viewBox="0 0 24 24"><g fill="none" stroke="currentColor" stroke-width="2" stroke-linecap="round" stroke-linejoin="round"><rect width="18" height="11" x="3" y="11" rx="2" ry="2" /><path d="M7 11V7a5 5 0 0 1 9.9-1" /></g></symbol>
  <symbol id="i-banknote" viewBox="0 0 24 24"><g fill="none" stroke="currentColor" stroke-width="2" stroke-linecap="round" stroke-linejoin="round"><rect width="20" height="12" x="2" y="6" rx="2" /><circle cx="12" cy="12" r="2" /><path d="M6 12h.01M18 12h.01" /></g></symbol>
  <symbol id="i-users" viewBox="0 0 24 24"><g fill="none" stroke="currentColor" stroke-width="2" stroke-linecap="round" stroke-linejoin="round"><path d="M16 21v-2a4 4 0 0 0-4-4H6a4 4 0 0 0-4 4v2" /><path d="M16 3.128a4 4 0 0 1 0 7.744" /><path d="M22 21v-2a4 4 0 0 0-3-3.87" /><circle cx="9" cy="7" r="4" /></g></symbol>
  <symbol id="i-chevron-right" viewBox="0 0 24 24"><g fill="none" stroke="currentColor" stroke-width="2" stroke-linecap="round" stroke-linejoin="round"><path d="m9 18 6-6-6-6" /></g></symbol>
  <symbol id="i-x" viewBox="0 0 24 24"><g fill="none" stroke="currentColor" stroke-width="2" stroke-linecap="round" stroke-linejoin="round"><path d="M18 6 6 18" /><path d="m6 6 12 12" /></g></symbol>
  <symbol id="i-arrow-right" viewBox="0 0 24 24"><g fill="none" stroke="currentColor" stroke-width="2" stroke-linecap="round" stroke-linejoin="round"><path d="M5 12h14" /><path d="m12 5 7 7-7 7" /></g></symbol>
  <symbol id="i-circle-alert" viewBox="0 0 24 24"><g fill="none" stroke="currentColor" stroke-width="2" stroke-linecap="round" stroke-linejoin="round"><circle cx="12" cy="12" r="10" /><line x1="12" x2="12" y1="8" y2="12" /><line x1="12" x2="12.01" y1="16" y2="16" /></g></symbol>
  <symbol id="i-info" viewBox="0 0 24 24"><g fill="none" stroke="currentColor" stroke-width="2" stroke-linecap="round" stroke-linejoin="round"><circle cx="12" cy="12" r="10" /><path d="M12 16v-4" /><path d="M12 8h.01" /></g></symbol>
  <symbol id="i-bell" viewBox="0 0 24 24"><g fill="none" stroke="currentColor" stroke-width="2" stroke-linecap="round" stroke-linejoin="round"><path d="M10.268 21a2 2 0 0 0 3.464 0" /><path d="M3.262 15.326A1 1 0 0 0 4 17h16a1 1 0 0 0 .74-1.673C19.41 13.956 18 12.499 18 8A6 6 0 0 0 6 8c0 4.499-1.411 5.956-2.738 7.326" /></g></symbol>
  <symbol id="i-moon" viewBox="0 0 24 24"><g fill="none" stroke="currentColor" stroke-width="2" stroke-linecap="round" stroke-linejoin="round"><path d="M20.985 12.486a9 9 0 1 1-9.473-9.472c.405-.022.617.46.402.803a6 6 0 0 0 8.268 8.268c.344-.215.825-.004.803.401" /></g></symbol>
  <symbol id="i-clock" viewBox="0 0 24 24"><g fill="none" stroke="currentColor" stroke-width="2" stroke-linecap="round" stroke-linejoin="round"><circle cx="12" cy="12" r="10" /><path d="M12 6v6l4 2" /></g></symbol>
  <symbol id="i-shield-check" viewBox="0 0 24 24"><g fill="none" stroke="currentColor" stroke-width="2" stroke-linecap="round" stroke-linejoin="round"><path d="M20 13c0 5-3.5 7.5-7.66 8.95a1 1 0 0 1-.67-.01C7.5 20.5 4 18 4 13V6a1 1 0 0 1 1-1c2 0 4.5-1.2 6.24-2.72a1.17 1.17 0 0 1 1.52 0C14.51 3.81 17 5 19 5a1 1 0 0 1 1 1z" /><path d="m9 12 2 2 4-4" /></g></symbol>
  <symbol id="i-house" viewBox="0 0 24 24"><g fill="none" stroke="currentColor" stroke-width="2" stroke-linecap="round" stroke-linejoin="round"><path d="M15 21v-8a1 1 0 0 0-1-1h-4a1 1 0 0 0-1 1v8" /><path d="M3 10a2 2 0 0 1 .709-1.528l7-6a2 2 0 0 1 2.582 0l7 6A2 2 0 0 1 21 10v9a2 2 0 0 1-2 2H5a2 2 0 0 1-2-2z" /></g></symbol>
  <symbol id="i-megaphone" viewBox="0 0 24 24"><g fill="none" stroke="currentColor" stroke-width="2" stroke-linecap="round" stroke-linejoin="round"><path d="M11 6a13 13 0 0 0 8.4-2.8A1 1 0 0 1 21 4v12a1 1 0 0 1-1.6.8A13 13 0 0 0 11 14H5a2 2 0 0 1-2-2V8a2 2 0 0 1 2-2z" /><path d="M6 14a12 12 0 0 0 2.4 7.2 2 2 0 0 0 3.2-2.4A8 8 0 0 1 10 14" /><path d="M8 6v8" /></g></symbol>
  <symbol id="i-calendar" viewBox="0 0 24 24"><g fill="none" stroke="currentColor" stroke-width="2" stroke-linecap="round" stroke-linejoin="round"><path d="M8 2v3" /><path d="M16 2v3" /><rect x="3" y="3" width="18" height="18" rx="2" /><path d="M3 9h18" /></g></symbol>
  <symbol id="i-chart-column" viewBox="0 0 24 24"><g fill="none" stroke="currentColor" stroke-width="2" stroke-linecap="round" stroke-linejoin="round"><path d="M3 3v16a2 2 0 0 0 2 2h16" /><path d="M18 17V9" /><path d="M13 17V5" /><path d="M8 17v-3" /></g></symbol>
  <symbol id="i-pin" viewBox="0 0 24 24"><g fill="none" stroke="currentColor" stroke-width="2" stroke-linecap="round" stroke-linejoin="round"><path d="M12 17v5" /><path d="M9 10.76a2 2 0 0 1-1.11 1.79l-1.78.9A2 2 0 0 0 5 15.24V16a1 1 0 0 0 1 1h12a1 1 0 0 0 1-1v-.76a2 2 0 0 0-1.11-1.79l-1.78-.9A2 2 0 0 1 15 10.76V7a1 1 0 0 1 1-1 2 2 0 0 0 0-4H8a2 2 0 0 0 0 4 1 1 0 0 1 1 1z" /></g></symbol>
  <symbol id="i-party-popper" viewBox="0 0 24 24"><g fill="none" stroke="currentColor" stroke-width="2" stroke-linecap="round" stroke-linejoin="round"><path d="M5.8 11.3 2 22l10.7-3.79" /><path d="M4 3h.01" /><path d="M22 8h.01" /><path d="M15 2h.01" /><path d="M22 20h.01" /><path d="m22 2-2.24.75a2.9 2.9 0 0 0-1.96 3.12c.1.86-.57 1.63-1.45 1.63h-.38c-.86 0-1.6.6-1.76 1.44L14 10" /><path d="m22 13-.82-.33c-.86-.34-1.82.2-1.98 1.11c-.11.7-.72 1.22-1.43 1.22H17" /><path d="m11 2 .33.82c.34.86-.2 1.82-1.11 1.98C9.52 4.9 9 5.52 9 6.23V7" /><path d="M11 13c1.93 1.93 2.83 4.17 2 5-.83.83-3.07-.07-5-2-1.93-1.93-2.83-4.17-2-5 .83-.83 3.07.07 5 2Z" /></g></symbol>
  <symbol id="i-inbox" viewBox="0 0 24 24"><g fill="none" stroke="currentColor" stroke-width="2" stroke-linecap="round" stroke-linejoin="round"><polyline points="22 12 16 12 14 15 10 15 8 12 2 12" /><path d="M5.45 5.11 2 12v6a2 2 0 0 0 2 2h16a2 2 0 0 0 2-2v-6l-3.45-6.89A2 2 0 0 0 16.76 4H7.24a2 2 0 0 0-1.79 1.11z" /></g></symbol>
  <symbol id="i-book-open" viewBox="0 0 24 24"><g fill="none" stroke="currentColor" stroke-width="2" stroke-linecap="round" stroke-linejoin="round"><path d="M12 5v16" /><path d="M20.001 19A2 2 0 0022 17V5a2 2 0 00-1.999-2L16 3.002A5 5 0 0012 5a5 5 0 00-4-2H4a2 2 0 00-2 2v12a2 2 0 001.999 2H8a5 5 0 014 2 5 5 0 014-2z" /></g></symbol>
  <symbol id="i-circle-help" viewBox="0 0 24 24"><g fill="none" stroke="currentColor" stroke-width="2" stroke-linecap="round" stroke-linejoin="round"><circle cx="12" cy="12" r="10" /><path d="M9.09 9a3 3 0 0 1 5.83 1c0 2-3 3-3 3" /><path d="M12 17h.01" /></g></symbol>
  <symbol id="i-rocket" viewBox="0 0 24 24"><g fill="none" stroke="currentColor" stroke-width="2" stroke-linecap="round" stroke-linejoin="round"><path d="M12 15v5s3.03-.55 4-2c1.08-1.62 0-5 0-5" /><path d="M4.5 16.5c-1.5 1.26-2 5-2 5s3.74-.5 5-2c.71-.84.7-2.13-.09-2.91a2.18 2.18 0 0 0-2.91-.09" /><path d="M9 12a22 22 0 0 1 2-3.95A12.88 12.88 0 0 1 22 2c0 2.72-.78 7.5-6 11a22.4 22.4 0 0 1-4 2z" /><path d="M9 12H4s.55-3.03 2-4c1.62-1.08 5 .05 5 .05" /></g></symbol>
  <symbol id="i-refresh-cw" viewBox="0 0 24 24"><g fill="none" stroke="currentColor" stroke-width="2" stroke-linecap="round" stroke-linejoin="round"><path d="M3 12a9 9 0 0 1 9-9 9.75 9.75 0 0 1 6.74 2.74L21 8" /><path d="M21 3v5h-5" /><path d="M21 12a9 9 0 0 1-9 9 9.75 9.75 0 0 1-6.74-2.74L3 16" /><path d="M8 16H3v5" /></g></symbol>
  <symbol id="i-hand" viewBox="0 0 24 24"><g fill="none" stroke="currentColor" stroke-width="2" stroke-linecap="round" stroke-linejoin="round"><path d="M18 11V6a2 2 0 0 0-2-2a2 2 0 0 0-2 2" /><path d="M14 10V4a2 2 0 0 0-2-2a2 2 0 0 0-2 2v2" /><path d="M10 10.5V6a2 2 0 0 0-2-2a2 2 0 0 0-2 2v8" /><path d="M18 8a2 2 0 1 1 4 0v6a8 8 0 0 1-8 8h-2c-2.8 0-4.5-.86-5.99-2.34l-3.6-3.6a2 2 0 0 1 2.83-2.82L7 15" /></g></symbol>
  <symbol id="i-monitor" viewBox="0 0 24 24"><g fill="none" stroke="currentColor" stroke-width="2" stroke-linecap="round" stroke-linejoin="round"><rect width="20" height="14" x="2" y="3" rx="2" /><line x1="8" x2="16" y1="21" y2="21" /><line x1="12" x2="12" y1="17" y2="21" /></g></symbol>
</svg>
